<?xml version="1.0" encoding="utf-8"?>
<!-- Generator: Adobe Illustrator 21.1.0, SVG Export Plug-In . SVG Version: 6.00 Build 0)  -->
<svg version="1.1" id="Layer_1" xmlns="http://www.w3.org/2000/svg" xmlns:xlink="http://www.w3.org/1999/xlink" x="0px" y="0px"
	 width="20px" height="17.259px" viewBox="0 0 20 17" style="enable-background:new 0 0 20 17;" xml:space="preserve">
<style type="text/css">
	.st0{fill:#E8E8E8;stroke:#000000;stroke-width:0.1738;stroke-miterlimit:10;}
	.st1{fill:url(#SVGID_1_);stroke:#000000;stroke-width:0.1738;stroke-miterlimit:10;}
	.st2{fill:url(#SVGID_2_);stroke:#000000;stroke-width:0.1738;stroke-miterlimit:10;}
	.st3{fill:url(#SVGID_3_);stroke:#000000;stroke-width:4.549157e-02;stroke-miterlimit:10;}
	.st4{fill:url(#SVGID_4_);stroke:#000000;stroke-width:4.771067e-02;stroke-miterlimit:10;}
</style>
<title>logoJam Session Box</title>
<g id="Layer_6">
	<path class="st0" d="M10,15.3L0.1,16V2.3l9.8-2.1c0,0,0,0,0.1,0c0,0,0,0,0,0V15.3z"/>
	
		<linearGradient id="SVGID_1_" gradientUnits="userSpaceOnUse" x1="10" y1="10.8805" x2="19.875" y2="10.8805" gradientTransform="matrix(1 0 0 -1 0 19)">
		<stop  offset="0" style="stop-color:#8C8C8C"/>
		<stop  offset="1" style="stop-color:#353535"/>
	</linearGradient>
	<path class="st1" d="M10,15.3l9.9,0.7V2.3l-9.8-2.1c0,0-0.1,0-0.1,0c0,0,0,0,0,0V15.3z"/>
	
		<radialGradient id="SVGID_2_" cx="10" cy="3.3031" r="7.023" gradientTransform="matrix(1 0 0 -1 0 19)" gradientUnits="userSpaceOnUse">
		<stop  offset="0" style="stop-color:#63FCFF"/>
		<stop  offset="1" style="stop-color:#0086AA"/>
	</radialGradient>
	<path class="st2" d="M0.1,16c0,0,9.9,0.8,9.9,0.8s9.9-0.7,9.9-0.8c0,0-9.9-1.4-9.9-1.4S0.1,16,0.1,16z"/>
	
		<radialGradient id="SVGID_3_" cx="436.9362" cy="10.1796" r="6.2405" gradientTransform="matrix(0.91 0 0 -1 -391.74 19)" gradientUnits="userSpaceOnUse">
		<stop  offset="0" style="stop-color:#00FCFF"/>
		<stop  offset="1" style="stop-color:#0086AA"/>
	</radialGradient>
	<path class="st3" d="M6.7,3.6L5.2,3.7l-0.1,6.8c0,0,0,1-0.2,1.3s-0.3,0.4-0.5,0.4c-0.3,0-0.8-0.1-0.8-1.4l-1.5,0.1
		c0,0-0.3,3.1,2.3,3.1s2.3-3.9,2.3-4.8L6.7,3.6z"/>
	
		<radialGradient id="SVGID_4_" cx="15.2638" cy="10.184" r="5.5076" gradientTransform="matrix(1 0 0 -1 0 19)" gradientUnits="userSpaceOnUse">
		<stop  offset="0" style="stop-color:#00FCFF"/>
		<stop  offset="1" style="stop-color:#0086AA"/>
	</radialGradient>
	<path class="st4" d="M16.3,6.8l1.5,0.1c0,0,0.2-3.3-2.5-3.3s-2.5,3-2.5,3s0,1.6,1.3,2.4c1.3,0.9,2.2,1.2,2.2,2.2s-1,1-1,1
		s-1.2,0.2-1.2-1.7l-1.5-0.1c0,0-0.3,3.5,2.6,3.5s2.6-2.5,2.6-3c0-0.5,0-1.8-1.8-2.9s-1.7-1.2-1.7-1.8s0.5-0.9,1-0.9
		C15.8,5.4,16.3,5.6,16.3,6.8z"/>
</g>
</svg>
