<svg id="Layer_1" data-name="Layer 1" xmlns="http://www.w3.org/2000/svg" viewBox="0 0 36 24.29"><defs><style>.cls-1{fill:#fff;}.cls-2{fill:#47bea3;}</style></defs><title>wonka-logo-2</title><path class="cls-1" d="M20.86,2.1,19.29.54a1.81,1.81,0,0,0-2.58,0L15.14,2.1Z"/><path class="cls-1" d="M11.1,6.14,9.54,7.71a1.81,1.81,0,0,0,0,2.58l1.56,1.57Z"/><path class="cls-1" d="M26.46,7.71,24.9,6.14v5.72l1.56-1.57A1.81,1.81,0,0,0,26.46,7.71Z"/><path class="cls-1" d="M15.14,15.9l1.57,1.56a1.81,1.81,0,0,0,2.58,0l1.57-1.56Z"/><path class="cls-2" d="M24.9,6.14V3.93A1.83,1.83,0,0,0,23.07,2.1H20.86Z"/><path class="cls-2" d="M20.86,15.9h2.21a1.83,1.83,0,0,0,1.83-1.83V11.86Z"/><path class="cls-2" d="M15.14,2.1H12.93A1.83,1.83,0,0,0,11.1,3.93V6.14Z"/><path class="cls-2" d="M11.1,11.86v2.21a1.83,1.83,0,0,0,1.83,1.83h2.21Z"/><path class="cls-1" d="M16.15,8.75l-.42,4H14.11l-.83-7.48h1.14l.63,5.9.57-5.9h1.13l.59,5.94L18,5.26h1l-.83,7.48H16.58Z"/><path class="cls-1" d="M21.14,5.18c1.14,0,1.73.68,1.73,1.88v.23H21.76V7c0-.53-.22-.73-.59-.73s-.59.2-.59.73c0,1.54,2.3,1.83,2.3,4,0,1.2-.6,1.88-1.75,1.88s-1.75-.68-1.75-1.88v-.46h1.11V11c0,.53.23.72.61.72s.6-.19.6-.72c0-1.54-2.29-1.83-2.29-4C19.41,5.86,20,5.18,21.14,5.18Z"/></svg>