<svg id="Layer_1" data-name="Layer 1" xmlns="http://www.w3.org/2000/svg" viewBox="0 0 265.96 265.96"><defs><style>.cls-1{fill:#18262f;}.cls-2{fill:#47bea3;}</style></defs><title>wonka-logo</title><path class="cls-1" d="M174.36,33.08,151.69,10.42a26.45,26.45,0,0,0-37.42,0L91.6,33.08Z"/><path class="cls-1" d="M33.08,91.6,10.42,114.27a26.45,26.45,0,0,0,0,37.42l22.66,22.67Z"/><path class="cls-1" d="M255.54,114.27,232.87,91.6v82.76l22.67-22.67A26.47,26.47,0,0,0,255.54,114.27Z"/><path class="cls-1" d="M91.6,232.87l22.67,22.67a26.47,26.47,0,0,0,37.42,0l22.67-22.67Z"/><path class="cls-2" d="M232.87,91.6V59.54a26.46,26.46,0,0,0-26.46-26.46h-32Z"/><path class="cls-2" d="M174.36,232.87h32a26.45,26.45,0,0,0,26.46-26.46v-32Z"/><path class="cls-2" d="M91.6,33.08H59.54A26.46,26.46,0,0,0,33.08,59.54V91.6Z"/><path class="cls-2" d="M33.08,174.36v32a26.46,26.46,0,0,0,26.46,26.46H91.6Z"/><path class="cls-1" d="M106.23,129.42l-6.18,57.66H76.71L64.65,78.88H81.19l9.12,85.32L98.5,78.88h16.39l8.5,85.94,8.81-85.94H147L135,187.08H112.42Z"/><path class="cls-1" d="M178.42,77.64c16.54,0,25,9.89,25,27.21v3.4H187.38v-4.49c0-7.72-3.09-10.66-8.5-10.66s-8.5,2.94-8.5,10.66c0,22.26,33.24,26.44,33.24,57.35,0,17.31-8.66,27.21-25.36,27.21s-25.35-9.9-25.35-27.21v-6.65H169v7.73c0,7.73,3.4,10.51,8.81,10.51s8.81-2.78,8.81-10.51c0-22.26-33.23-26.43-33.23-57.34C153.38,87.53,161.88,77.64,178.42,77.64Z"/></svg>